<?xml version="1.0" encoding="UTF-8" standalone="no"?>
<!-- Created with Inkscape (http://www.inkscape.org/) -->

<svg
   width="210mm"
   height="210mm"
   viewBox="0 0 210 210"
   version="1.1"
   id="svg5"
   inkscape:version="1.1.2 (0a00cf5339, 2022-02-04)"
   sodipodi:docname="taskolib.svg"
   inkscape:export-filename="/home/fini/taskolib.png"
   inkscape:export-xdpi="96"
   inkscape:export-ydpi="96"
   xmlns:inkscape="http://www.inkscape.org/namespaces/inkscape"
   xmlns:sodipodi="http://sodipodi.sourceforge.net/DTD/sodipodi-0.dtd"
   xmlns="http://www.w3.org/2000/svg"
   xmlns:svg="http://www.w3.org/2000/svg">
  <sodipodi:namedview
     id="namedview7"
     pagecolor="#ffffff"
     bordercolor="#666666"
     borderopacity="1.0"
     inkscape:pageshadow="2"
     inkscape:pageopacity="0.0"
     inkscape:pagecheckerboard="0"
     inkscape:document-units="mm"
     showgrid="false"
     inkscape:zoom="0.73952369"
     inkscape:cx="325.20933"
     inkscape:cy="528.71869"
     inkscape:window-width="1920"
     inkscape:window-height="1011"
     inkscape:window-x="0"
     inkscape:window-y="32"
     inkscape:window-maximized="1"
     inkscape:current-layer="layer1" />
  <defs
     id="defs2" />
  <g
     inkscape:label="Layer 1"
     inkscape:groupmode="layer"
     id="layer1">
    <g
       id="g8703"
       transform="matrix(1.3338576,0,0,1.3338576,-13.007539,-39.165536)">
      <path
         id="path836"
         style="fill:#000000;stroke-width:2.65088"
         d="M 322.30859,160.00195 C 303.89534,160.05863 285.23865,163.09331 266.97461,169.38867 221.54027,185.0492 185.94601,216.46974 165.62109,258.85938 151.23038,288.87274 147.53434,304.96515 147.26172,338.76953 L 147.04492,365.66211 133.01758,366.83203 C 100.54222,369.53849 87.897328,397.45468 99.306641,441.25781 108.01432,474.68909 130.60384,502.92594 154,509.625 169.37378,514.02698 170.79813,515.32959 174.71289,528.55469 194.4041,595.07789 238.43742,645.12912 288.86719,658.31055 300.85324,661.44348 312.86619,663.01021 324.69168,662.81788 L 344.62218,662.49372 344.45314,159.93378 Z M 319.26367,187.25781 V 311.64844 C 297.36349,323.77239 269.15997,331.2354 234.9043,333.87109 L 210.66602,335.73633 203.59961,350.55273 C 197.10444,364.17488 183.20607,379.47461 177.32617,379.47461 173.17867,379.47461 174.43964,316.00016 178.92969,298.76172 191.57618,250.20874 230.29817,209.4398 278.7207,193.69531 290.93367,189.72426 305.08496,187.5917 319.26367,187.25781 Z M 319.26367,341.41406 V 635.26367 C 296.16607,634.3693 273.52032,626.14567 255.29688,611.21289 243.2326,601.32716 224.23782,576.27587 215.26172,558.41016 200.98382,529.992 184.86838,469.96573 178.83398,422.72266 L 177.07812,408.97656 190.57812,403.16797 C 204.91624,396.99982 217.57898,384.61524 224.60156,369.88867 228.42003,361.88122 230.03447,360.91583 239.6543,360.88477 259.1126,360.82181 296.89369,351.49591 319.26367,341.41406 Z M 133.31641,392.76562 C 143.36795,392.88215 148.30398,396.40041 149.47852,404.28711 150.16031,408.86495 152.59956,425.73363 154.89844,441.77148 157.19742,457.80934 159.7899,473.61405 160.66016,476.89453 162.75615,484.79567 158.63071,484.45903 148.45703,475.89844 123.75808,455.11565 112.35819,392.52287 133.31641,392.76562 Z"
         transform="scale(0.26458333)"
         sodipodi:nodetypes="sssccccscssccscccccssscccsssccscccscssc" />
      <ellipse
         style="fill:#000000;fill-opacity:1;fill-rule:evenodd;stroke:none;stroke-width:0.264583"
         id="path5284"
         cx="73.251404"
         cy="110.65561"
         rx="4.8553305"
         ry="5.1087637" />
      <path
         style="fill:none;stroke:#000000;stroke-width:5.465;stroke-linecap:round;stroke-linejoin:miter;stroke-miterlimit:4;stroke-dasharray:none;stroke-opacity:1"
         d="M 71.485644,141.88913 C 71.948522,142.60119 72.088251,143.28415 72.429466,143.96892 72.466388,144.04302 72.37039,144.15929 72.429466,144.21729 72.459554,144.24683 72.524901,144.18877 72.55596,144.21729 72.666659,144.31893 72.707254,144.66607 72.80818,144.81819 72.811368,144.82299 73.056713,145.06506 73.057544,145.06755 73.084212,145.14756 73.01983,145.24511 73.057544,145.32054 73.060269,145.32599 73.274309,145.42733 73.289229,145.44461 73.410313,145.58483 73.690076,145.93091 73.817867,146.09931 73.937824,146.25737 74.092599,146.62306 74.208802,146.73832 75.264669,147.78557 77.835813,148.81225 79.259817,149.28691 79.611985,149.4043 80.031551,149.3406 80.39825,149.41341 80.871373,149.50734 81.342543,149.67994 81.794327,149.79289 82.358667,149.93397 83.028655,149.69985 83.60341,149.79289 83.988336,149.85519 84.380181,149.95506 84.747471,150.04587 85.063971,150.12413 85.437438,149.99221 85.759412,150.04587 86.146571,150.1104 86.516671,150.22224 86.902634,150.29886 87.143688,150.34671 87.423461,150.23932 87.661589,150.29886 87.918494,150.36308 87.914914,150.42535 88.158349,150.42535"
         id="path5830" />
      <path
         style="fill:#d0d0d0;fill-opacity:1;stroke-width:0.0388381"
         d="M 115.88044,69.671214 C 115.83883,69.697447 115.77359,69.722562 115.73546,69.727031 115.69734,69.731488 115.73139,69.710022 115.81113,69.67932 115.89087,69.648619 115.92205,69.64497 115.88044,69.671214 Z M 134.73774,69.6005 C 134.80516,69.640294 134.80438,69.642066 134.72943,69.619497 134.6507,69.595788 134.61993,69.573575 134.6497,69.561939 134.65721,69.559004 134.69683,69.576357 134.73774,69.6005 Z M 103.83555,81.662116 C 103.83849,81.669625 103.82113,81.709243 103.79699,81.750156 103.7572,81.817579 103.75542,81.816797 103.77799,81.741834 103.8017,81.663117 103.82391,81.632343 103.83555,81.662116 Z M 122.12113,84.577924 C 122.0991,84.598586 122.0674,84.609491 122.05068,84.60217 122.03396,84.594841 122.05198,84.577942 122.09073,84.56461 122.13355,84.549876 122.14547,84.555099 122.12113,84.577924 Z M 147.10435,82.416418 C 147.25598,82.804385 147.31268,82.965174 147.23037,82.773737 147.14805,82.582292 147.024,82.264873 146.95469,82.068344 146.88538,81.871822 146.95273,82.028452 147.10435,82.416418 Z M 103.47085,99.656831 C 103.58743,99.955284 103.62766,100.07475 103.56025,99.922307 103.49284,99.769863 103.39745,99.525674 103.34828,99.379669 103.29911,99.233653 103.35427,99.358382 103.47085,99.656831 Z M 114.43802,95.249038 C 114.45276,95.291862 114.44753,95.303777 114.42471,95.279435 114.40406,95.257406 114.39314,95.225707 114.40047,95.208988 114.40779,95.192265 114.42469,95.210293 114.43802,95.249038 Z M 114.69249,95.900166 C 114.70723,95.94299 114.70201,95.954905 114.67918,95.930563 114.65853,95.908534 114.64762,95.876835 114.65494,95.860108 114.66226,95.843393 114.67917,95.861421 114.69249,95.900166 Z M 122.12408,97.985725 122.2248,98.040179 122.11648,98.003084 C 122.05691,97.982678 122.00597,97.960366 122.00328,97.953497 121.99197,97.924549 122.02943,97.934542 122.12408,97.985725 Z M 122.37564,98.095902 122.47636,98.150367 122.36804,98.113261 C 122.26624,98.078398 122.23349,98.05764 122.26244,98.046326 122.2693,98.043645 122.32024,98.065949 122.37564,98.095902 Z M 101.29119,115.56959 C 101.26915,115.59024 101.23745,115.60116 101.22073,115.59383 101.20402,115.58651 101.22204,115.56961 101.26079,115.55627 101.30361,115.54154 101.31553,115.54676 101.29119,115.56959 Z M 99.265462,116.36128 C 99.243426,116.38193 99.211727,116.39285 99.195008,116.38552 99.178292,116.3782 99.196321,116.3613 99.235065,116.34797 99.277882,116.33323 99.289805,116.33845 99.265462,116.36128 Z M 87.290792,127.72622 C 87.231686,127.86399 87.175192,127.97989 87.16524,127.98378 87.155295,127.98767 87.195515,127.87813 87.25462,127.74036 87.313718,127.60259 87.37022,127.48669 87.380165,127.4828 87.390118,127.47891 87.34989,127.58845 87.290792,127.72622 Z M 118.04012,116.07368 C 118.10754,116.11348 118.10676,116.11525 118.0318,116.09268 117.95308,116.06897 117.9223,116.04676 117.95208,116.03512 117.95959,116.03219 117.9992,116.04954 118.04012,116.07368 Z M 118.79479,116.40423 C 118.8622,116.44402 118.86142,116.44579 118.78647,116.42322 118.70774,116.39952 118.67697,116.3773 118.70674,116.36567 118.71425,116.36273 118.75387,116.38009 118.79479,116.40423 Z M 86.74612,129.10665 C 86.725663,129.16052 86.700781,129.20777 86.690836,129.21166 86.680891,129.21555 86.689491,129.17466 86.709948,129.12079 86.730408,129.06693 86.75529,129.01967 86.765235,129.01579 86.77518,129.0119 86.76658,129.05279 86.74612,129.10665 Z M 106.0293,130.14717 C 106.00727,130.16783 105.97557,130.17874 105.95885,130.17141 105.94213,130.16409 105.96015,130.14719 105.9989,130.13386 106.04172,130.11912 106.05365,130.12435 106.0293,130.14717 Z M 105.41435,130.38751 C 105.39232,130.40816 105.36062,130.41907 105.34389,130.41175 105.32718,130.40442 105.34521,130.38752 105.38395,130.37419 105.42677,130.35946 105.43869,130.36468 105.41435,130.38751 Z M 106.83312,133.21088 C 106.80186,133.23359 106.74489,133.25586 106.70651,133.26036 106.66814,133.26487 106.69372,133.2463 106.76336,133.21909 106.83299,133.19187 106.86439,133.18818 106.83312,133.21088 Z M 114.03229,136.35583 C 114.04702,136.39865 114.0418,136.41057 114.01897,136.38623 113.99832,136.3642 113.98741,136.33249 113.99473,136.31577 114.00205,136.29906 114.01896,136.31708 114.03229,136.35583 Z M 131.43269,129.67706 C 131.45528,129.73703 131.455,129.76024 131.43207,129.72863 131.40915,129.69701 131.39066,129.64795 131.391,129.61958 131.39134,129.59122 131.41009,129.61708 131.43269,129.67706 Z M 114.14842,136.66141 C 114.16786,136.71115 114.1676,136.7347 114.14784,136.71375 114.12809,136.6928 114.11219,136.65211 114.1125,136.62332 114.11282,136.59453 114.12898,136.61167 114.14842,136.66141 Z M 131.76625,130.52661 C 131.78569,130.57635 131.78543,130.59991 131.76567,130.57896 131.74592,130.55801 131.73002,130.51731 131.73033,130.48852 131.73065,130.45974 131.74681,130.47687 131.76625,130.52661 Z M 110.72374,143.86615 C 110.70172,143.8868 110.67001,143.89771 110.6533,143.89039 110.63658,143.88307 110.6546,143.86617 110.69335,143.85284 110.73617,143.8381 110.74809,143.84333 110.72374,143.86615 Z M 99.124506,160.34884 99.378227,160.46859 99.118163,160.3633 C 98.876504,160.26548 98.83338,160.2437 98.86037,160.23315 98.86609,160.23092 98.984952,160.28297 99.124506,160.34884 Z"
         id="path6038" />
      <path
         style="fill:#b9b9b9;fill-opacity:1;stroke-width:0.0388381"
         d="M 116.87616,69.283621 C 116.70467,69.358286 116.4198,69.469618 116.24313,69.531023 116.06645,69.59243 116.20676,69.531337 116.55494,69.395265 116.90311,69.259193 117.04766,69.208954 116.87616,69.283621 Z M 103.89237,81.54076 C 103.87192,81.594629 103.84703,81.641882 103.83709,81.645768 103.82714,81.649658 103.83574,81.608768 103.85619,81.5549 103.87666,81.501036 103.90154,81.453786 103.91149,81.449897 103.92143,81.44601 103.91283,81.4869 103.89237,81.54076 Z M 134.93711,69.689377 135.06369,69.754582 134.92994,69.705769 C 134.80492,69.660135 134.77038,69.639871 134.79875,69.628784 134.80524,69.62625 134.8675,69.653514 134.93711,69.689377 Z M 114.62567,86.811618 C 114.57906,86.92157 114.53278,87.014714 114.52284,87.018601 114.51289,87.022488 114.54289,86.935707 114.58949,86.825758 114.6361,86.715805 114.68238,86.622661 114.69232,86.618775 114.70227,86.614888 114.67228,86.701666 114.62567,86.811618 Z M 118.40113,88.309762 C 118.40356,88.315991 118.37134,88.389566 118.32951,88.473274 L 118.25347,88.62547 118.31377,88.46638 C 118.36997,88.31809 118.39021,88.281816 118.40113,88.309762 Z M 129.50981,101.87412 C 129.44872,101.9072 129.33483,101.95187 129.25672,101.97337 129.1786,101.99487 129.22859,101.9678 129.36779,101.91321 129.507,101.85862 129.5709,101.84103 129.50981,101.87412 Z M 100.73151,115.79102 C 100.45916,115.90455 100.01965,116.07631 99.754807,116.1727 99.489972,116.26909 99.712797,116.1762 100.24998,115.96627 100.78717,115.75636 101.00386,115.67749 100.73151,115.79102 Z M 118.19105,116.13979 C 118.25847,116.17958 118.25769,116.18136 118.18274,116.15879 118.10401,116.13508 118.07324,116.11287 118.10301,116.10123 118.11052,116.0983 118.15014,116.11565 118.19105,116.13979 Z M 118.64385,116.33812 C 118.71127,116.37791 118.71049,116.37968 118.63553,116.35711 118.55681,116.33341 118.52603,116.31119 118.55581,116.29956 118.56332,116.29662 118.60294,116.31397 118.64385,116.33812 Z M 86.834265,128.90541 C 86.813808,128.95928 86.788926,129.00653 86.778981,129.01042 86.769036,129.0143 86.777636,128.97341 86.798093,128.91954 86.818553,128.86568 86.843435,128.81843 86.85338,128.81454 86.863325,128.81066 86.854725,128.85155 86.834265,128.90541 Z M 106.95738,133.16206 C 106.93536,133.18272 106.90365,133.19363 106.88693,133.18631 106.87021,133.17899 106.88824,133.16208 106.92698,133.14875 106.9698,133.13402 106.98172,133.13924 106.95738,133.16206 Z M 106.63182,133.2893 C 106.60979,133.30996 106.57809,133.32086 106.56137,133.31354 106.54465,133.30622 106.56268,133.28932 106.60142,133.27598 106.64424,133.26126 106.65616,133.26647 106.63182,133.2893 Z M 102.025,135.28548 C 102.02794,135.29299 102.01058,135.33261 101.98643,135.37352 101.94665,135.44094 101.94487,135.44016 101.96744,135.36521 101.99115,135.28649 102.01337,135.25571 102.025,135.28548 Z M 101.87075,135.63766 C 101.87368,135.64517 101.85633,135.68479 101.83218,135.7257 101.79239,135.79312 101.79061,135.79234 101.81319,135.71739 101.8369,135.63865 101.85911,135.60789 101.87075,135.63766 Z M 103.56413,136.50297 C 103.54367,136.55683 103.5188,136.60408 103.50884,136.60797 103.4989,136.61185 103.5075,136.57096 103.52796,136.5171 103.54842,136.46323 103.5733,136.41598 103.58324,136.41209 103.5932,136.4082 103.5846,136.44909 103.56413,136.50297 Z M 131.59617,130.11355 C 131.67383,130.31254 131.69776,130.39169 131.64935,130.28944 131.60094,130.18718 131.5374,130.02437 131.50815,129.92763 131.4789,129.83089 131.51851,129.91455 131.59617,130.11355 Z M 101.96733,141.65482 C 101.98207,141.69764 101.97685,141.70956 101.95402,141.68521 101.93337,141.66318 101.92245,141.63148 101.92977,141.61477 101.9371,141.59805 101.954,141.61607 101.96733,141.65482 Z M 131.38499,147.24578 C 131.38793,147.2533 131.37057,147.29291 131.34643,147.33383 131.30664,147.40124 131.30486,147.40046 131.32743,147.3255 131.35114,147.24678 131.37335,147.21601 131.38499,147.24578 Z"
         id="path6036" />
      <path
         style="fill:#a3a3a3;fill-opacity:1;stroke-width:0.0388381"
         d="M 121.01944,80.632004 C 120.94788,80.668964 120.82578,80.71668 120.74813,80.738034 120.67047,80.759391 120.72902,80.729144 120.87824,80.670826 121.02745,80.612511 121.09099,80.595046 121.01944,80.632004 Z M 129.68707,101.80323 C 129.66504,101.82389 129.63334,101.8348 129.61662,101.82748 129.5999,101.82015 129.61793,101.80325 129.65667,101.78992 129.69949,101.77519 129.71141,101.78041 129.68707,101.80323 Z M 129.10829,102.02943 C 129.08626,102.05009 129.05456,102.061 129.03784,102.05368 129.02112,102.04635 129.03914,102.02945 129.0779,102.01612 129.12071,102.00138 129.13264,102.00661 129.10829,102.02943 Z M 116.4836,112.84571 116.66128,112.93264 116.47691,112.86099 C 116.3053,112.79431 116.26731,112.77387 116.29493,112.76308 116.30098,112.76071 116.38588,112.7979 116.4836,112.84571 Z M 101.92757,135.51631 C 101.9071,135.57018 101.88223,135.61743 101.87228,135.62131 101.86233,135.6252 101.87093,135.58431 101.89139,135.53045 101.91185,135.47658 101.93673,135.42933 101.94668,135.42544 101.95663,135.42155 101.94803,135.46244 101.92757,135.51631 Z M 101.727,141.03986 C 101.74173,141.08268 101.73651,141.0946 101.71368,141.07026 101.69303,141.04823 101.68212,141.01653 101.68944,140.99981 101.69677,140.98309 101.71367,141.00112 101.727,141.03986 Z M 101.92492,141.5463 C 101.93966,141.58911 101.93443,141.60104 101.91161,141.57669 101.89095,141.55466 101.88004,141.52296 101.88736,141.50624 101.89469,141.48952 101.91159,141.50754 101.92492,141.5463 Z M 115.80856,141.53258 C 115.81149,141.54009 115.79413,141.57971 115.76999,141.62062 115.7302,141.68805 115.72842,141.68727 115.75099,141.6123 115.7747,141.53358 115.79692,141.50281 115.80856,141.53258 Z M 131.27654,147.50176 C 131.24926,147.56977 131.21879,147.62858 131.20885,147.63247 131.19889,147.63636 131.21308,147.5839 131.24037,147.5159 131.26766,147.4479 131.29812,147.38908 131.30807,147.38519 131.31801,147.38131 131.30383,147.43376 131.27654,147.50176 Z"
         id="path6034" />
      <path
         style="fill:#8c8c8c;fill-opacity:1;stroke-width:0.0388381"
         d="M 121.21549,80.553491 C 121.19346,80.574149 121.16175,80.585058 121.14504,80.577736 121.12832,80.570415 121.14634,80.553516 121.18509,80.540176 121.22791,80.525443 121.23983,80.530665 121.21549,80.553491 Z M 121.84543,82.058647 C 121.8234,82.079306 121.7917,82.090211 121.77498,82.08289 121.75826,82.075571 121.77629,82.05867 121.81503,82.045333 121.85785,82.030599 121.86977,82.035829 121.84543,82.058647 Z M 128.96209,82.303278 129.11428,82.37932 128.95519,82.319026 C 128.8069,82.262814 128.77063,82.242589 128.79858,82.231667 128.80481,82.229233 128.87838,82.261459 128.96209,82.303278 Z M 120.65673,101.81169 120.85981,101.90955 120.65019,101.82664 C 120.45524,101.74954 120.41554,101.72874 120.44291,101.71804 120.44882,101.71573 120.54504,101.75788 120.65673,101.81169 Z M 129.79559,101.76082 C 129.77356,101.78148 129.74186,101.79239 129.72514,101.78507 129.70842,101.77774 129.72644,101.76084 129.7652,101.74751 129.80801,101.73277 129.81994,101.738 129.79559,101.76082 Z M 128.99977,102.07184 C 128.97774,102.09249 128.94604,102.10341 128.92932,102.09609 128.9126,102.08876 128.93062,102.07186 128.96937,102.05853 129.01219,102.0438 129.02411,102.04902 128.99977,102.07184 Z M 116.10603,112.68053 116.3091,112.77839 116.09948,112.69548 C 115.90453,112.61837 115.86484,112.59757 115.89221,112.58688 115.89811,112.58457 115.99433,112.62672 116.10603,112.68053 Z M 112.0199,120.50865 C 111.99787,120.5293 111.96618,120.54021 111.94946,120.53288 111.93274,120.52556 111.95076,120.50866 111.98951,120.49533 112.03233,120.4806 112.04425,120.48582 112.0199,120.50865 Z M 103.70564,136.17152 C 103.70857,136.17902 103.69122,136.21864 103.66708,136.25955 103.62728,136.32698 103.62551,136.3262 103.64808,136.25123 103.67179,136.17251 103.694,136.14174 103.70564,136.17152 Z M 101.81643,141.29333 C 101.86288,141.41278 101.8735,141.45989 101.84005,141.39803 101.80659,141.33615 101.76858,141.23842 101.75559,141.18084 101.7426,141.12326 101.76998,141.17387 101.81643,141.29333 Z M 100.66303,141.7441 C 100.68562,141.80407 100.68534,141.82728 100.66241,141.79567 100.63949,141.76405 100.62101,141.71499 100.62134,141.68662 100.62168,141.65826 100.64044,141.68413 100.66303,141.7441 Z M 130.73977,148.79572 C 130.69949,148.89173 130.6584,148.97346 130.64846,148.97735 130.6385,148.98124 130.66332,148.90587 130.7036,148.80985 130.74388,148.71384 130.78496,148.63211 130.79492,148.62822 130.80486,148.62433 130.78005,148.6997 130.73977,148.79572 Z"
         id="path6032" />
      <path
         style="fill:#767676;fill-opacity:1;stroke-width:0.0388381"
         d="M 120.52819,80.8221 C 120.50616,80.842758 120.47445,80.853667 120.45774,80.846345 120.44102,80.839024 120.45904,80.822126 120.49779,80.808786 120.54061,80.794052 120.55253,80.799274 120.52819,80.8221 Z M 116.05953,87.439659 C 116.01926,87.535671 115.97816,87.617405 115.96821,87.621295 115.95827,87.625182 115.98308,87.549811 116.02336,87.453795 116.06364,87.35778 116.10473,87.276049 116.11468,87.272159 116.12462,87.268273 116.09981,87.343644 116.05953,87.439659 Z M 127.83288,84.475095 C 127.90029,84.514891 127.89951,84.516663 127.82455,84.494094 127.74583,84.470386 127.71506,84.448172 127.74483,84.436536 127.75235,84.433599 127.79196,84.450951 127.83288,84.475095 Z M 128.03412,84.56324 C 128.10154,84.603036 128.10075,84.604808 128.0258,84.582239 127.98031,84.56854 127.94069,84.551187 127.93776,84.543678 127.92612,84.513905 127.96331,84.521454 128.03412,84.56324 Z M 115.32612,92.400024 C 115.34086,92.442848 115.33564,92.454771 115.31281,92.430421 115.29215,92.408395 115.28124,92.376693 115.28856,92.359977 115.29589,92.343261 115.31279,92.361279 115.32612,92.400024 Z M 118.23921,94.010187 C 118.28566,94.129635 118.29629,94.176749 118.26282,94.114885 118.22936,94.053011 118.19135,93.95528 118.17837,93.897696 118.16538,93.840111 118.19276,93.890739 118.23921,94.010187 Z M 115.70354,112.50424 115.90661,112.6021 115.69699,112.51919 C 115.50204,112.44208 115.46235,112.42128 115.48972,112.41059 115.49562,112.40828 115.59184,112.45043 115.70354,112.50424 Z M 146.83905,100.47144 C 146.81176,100.53944 146.78129,100.59825 146.77135,100.60214 146.7614,100.60603 146.77559,100.55358 146.80288,100.48557 146.83016,100.41757 146.86063,100.35875 146.87057,100.35487 146.88053,100.35098 146.86634,100.40344 146.83905,100.47144 Z M 100.59235,141.56323 C 100.61493,141.62321 100.61465,141.64641 100.59173,141.6148 100.5688,141.58319 100.55032,141.53412 100.55066,141.50576 100.551,141.47739 100.56975,141.50325 100.59235,141.56323 Z M 117.12459,135.33147 C 117.17513,135.46079 117.18924,135.51626 117.15595,135.45474 117.12265,135.39321 117.0813,135.28741 117.06405,135.2196 117.04681,135.15181 117.07405,135.20215 117.12459,135.33147 Z M 100.73372,141.92496 C 100.75631,141.98494 100.75603,142.00815 100.7331,141.97654 100.71018,141.94493 100.69169,141.89585 100.69203,141.86749 100.69237,141.83913 100.71113,141.86499 100.73372,141.92496 Z"
         id="path6030" />
      <path
         style="fill:#606060;fill-opacity:1;stroke-width:0.0388381"
         d="M 121.66653,82.127702 C 121.64558,82.147452 121.60488,82.163357 121.57609,82.163047 121.5473,82.162729 121.56444,82.146565 121.61418,82.127125 121.66392,82.107686 121.68747,82.107945 121.66653,82.127702 Z M 121.26862,82.283213 C 121.24767,82.302963 121.20697,82.318868 121.17818,82.318558 121.14939,82.31824 121.16653,82.302076 121.21627,82.282636 121.26601,82.263197 121.28956,82.263456 121.26862,82.283213 Z M 115.42974,112.3819 C 115.49715,112.4217 115.49638,112.42347 115.42142,112.4009 115.34269,112.37719 115.31192,112.35498 115.3417,112.34334 115.34921,112.34041 115.38882,112.35776 115.42974,112.3819 Z M 146.66276,100.87392 C 146.59746,101.02558 146.53589,101.15285 146.52594,101.15673 146.516,101.16062 146.56128,101.03972 146.62659,100.88806 146.69189,100.7364 146.75345,100.60913 146.7634,100.60524 146.77335,100.60136 146.72806,100.72227 146.66276,100.87392 Z M 117.02846,135.05977 C 117.0432,135.10259 117.03797,135.11451 117.01515,135.09017 116.9945,135.06814 116.98358,135.03644 116.9909,135.01972 116.99823,135.003 117.01513,135.02103 117.02846,135.05977 Z M 103.59736,140.61816 C 103.63235,140.70768 103.63961,140.74707 103.6135,140.70568 103.58738,140.66428 103.55875,140.59102 103.54988,140.54289 103.541,140.49476 103.56237,140.52863 103.59736,140.61816 Z M 117.24052,135.60238 C 117.25526,135.64519 117.25003,135.65712 117.22721,135.63277 117.20656,135.61074 117.19564,135.57905 117.20296,135.56232 117.21029,135.5456 117.22719,135.56363 117.24052,135.60238 Z M 100.79564,142.07103 C 100.81038,142.11386 100.80515,142.12577 100.78233,142.10143 100.76167,142.0794 100.75076,142.0477 100.75808,142.03099 100.7654,142.01426 100.7823,142.03229 100.79564,142.07103 Z M 116.89343,142.28126 C 116.86614,142.34926 116.83568,142.40808 116.82573,142.41197 116.81578,142.41585 116.82997,142.3634 116.85725,142.2954 116.88454,142.2274 116.91501,142.16858 116.92496,142.16469 116.9349,142.16081 116.92072,142.21326 116.89343,142.28126 Z"
         id="path6028" />
      <path
         style="fill:#494949;fill-opacity:1;stroke-width:0.0388381"
         d="M 121.48587,82.20018 C 121.44425,82.226417 121.37902,82.25154 121.34089,82.255997 121.30277,82.260462 121.33681,82.238991 121.41655,82.20829 121.4963,82.177596 121.52749,82.173937 121.48587,82.20018 Z M 129.78109,80.773936 130.03482,80.89369 129.77476,80.7884 C 129.63172,80.730498 129.51286,80.678435 129.51062,80.672715 129.50007,80.645717 129.54532,80.662655 129.78109,80.773936 Z M 115.85973,94.627389 C 115.87917,94.677129 115.87891,94.700682 115.85916,94.679732 115.8394,94.658785 115.8235,94.618096 115.82382,94.589303 115.82413,94.560514 115.84029,94.577649 115.85973,94.627389 Z M 116.04048,95.081454 C 116.05522,95.124278 116.04999,95.136194 116.02717,95.111851 116.00651,95.089826 115.99561,95.058124 116.00293,95.041408 116.01025,95.024684 116.02715,95.04271 116.04048,95.081454 Z M 131.83369,94.138901 C 131.81324,94.19277 131.78835,94.240023 131.77841,94.243909 131.76846,94.247799 131.77706,94.206909 131.79751,94.153041 131.81798,94.099177 131.84286,94.051927 131.8528,94.048041 131.86275,94.044151 131.85415,94.085041 131.83369,94.138901 Z M 135.76273,95.709924 C 135.72245,95.80594 135.68136,95.887674 135.67141,95.89156 135.66146,95.89545 135.68628,95.820076 135.72655,95.724064 135.76683,95.628056 135.80793,95.546314 135.81787,95.542428 135.82783,95.538538 135.80301,95.61392 135.76273,95.709924 Z M 102.47198,112.3692 C 102.46746,112.39391 102.45658,112.41693 102.44781,112.42036 102.43904,112.42378 102.42549,112.41031 102.41772,112.39041 102.40995,112.37052 102.42082,112.3475 102.44189,112.33927 102.46296,112.33103 102.4765,112.34451 102.47198,112.3692 Z M 147.5379,98.525257 C 147.54084,98.532766 147.52348,98.572384 147.49934,98.613296 147.45955,98.680717 147.45777,98.679937 147.48034,98.604974 147.50405,98.526258 147.52627,98.495484 147.5379,98.525257 Z M 111.73136,131.57014 111.83208,131.62459 111.72376,131.5875 C 111.62197,131.55263 111.58922,131.53186 111.61817,131.52055 111.62503,131.51787 111.67597,131.54018 111.73136,131.57014 Z M 116.98605,134.95125 C 117.00078,134.99406 116.99556,135.00599 116.97273,134.98165 116.95208,134.95962 116.94117,134.92792 116.94849,134.9112 116.95582,134.89448 116.97272,134.9125 116.98605,134.95125 Z M 103.52778,140.41948 C 103.54252,140.4623 103.5373,140.47422 103.51447,140.44987 103.49382,140.42785 103.4829,140.39615 103.49022,140.37943 103.49755,140.36271 103.51445,140.38073 103.52778,140.41948 Z M 103.68329,140.81739 C 103.69803,140.86021 103.69281,140.87214 103.66998,140.84779 103.64933,140.82576 103.63841,140.79406 103.64574,140.77734 103.65306,140.76062 103.66996,140.77864 103.68329,140.81739 Z M 105.59708,145.37214 C 105.6645,145.41193 105.66372,145.41371 105.58876,145.39114 105.51004,145.36743 105.47926,145.34522 105.50904,145.33358 105.51655,145.33065 105.55617,145.348 105.59708,145.37214 Z M 105.34991,146.61546 105.55298,146.71331 105.34336,146.6304 C 105.22807,146.58481 105.13185,146.54267 105.12954,146.53675 105.11884,146.50939 105.16105,146.52446 105.34991,146.61546 Z M 117.00361,142.02971 C 116.97632,142.09771 116.94586,142.15653 116.93591,142.16041 116.92596,142.1643 116.94015,142.11184 116.96744,142.04384 116.99473,141.97584 117.02519,141.91702 117.03514,141.91314 117.04508,141.90925 117.0309,141.96171 117.00361,142.02971 Z M 116.82559,142.42777 C 116.82853,142.43528 116.81117,142.47489 116.78702,142.51581 116.74724,142.58323 116.74546,142.58245 116.76803,142.50749 116.79174,142.42876 116.81396,142.39799 116.82559,142.42777 Z M 119.19561,153.27332 C 119.17357,153.29398 119.14187,153.30489 119.12516,153.29757 119.10844,153.29024 119.12646,153.27334 119.16521,153.26001 119.20803,153.24527 119.21995,153.2505 119.19561,153.27332 Z"
         id="path6026" />
      <path
         style="fill:#000000;fill-opacity:1;stroke-width:0.0289777"
         d="M 112.47538,54.699977 C 113.44445,54.497221 113.68778,54.456122 114.73725,54.317907 115.69926,54.191203 116.64352,54.099867 117.22549,54.077214 117.54128,54.064923 118.54236,54.073872 118.57815,54.089311 118.62292,54.108614 119.84846,59.616343 119.86851,59.888328 119.87282,59.946809 119.99634,59.975285 120.97817,60.144157 122.33682,60.377844 123.02059,60.552177 123.76054,60.853564 123.98588,60.945346 124.38738,61.106599 124.65275,61.211903 L 125.13524,61.403359 125.84251,60.673836 C 127.37825,59.089772 128.34333,58.088636 128.79265,57.613488 129.05138,57.339879 129.27851,57.109983 129.29738,57.102608 129.35474,57.080189 130.46837,57.791225 131.23187,58.337747 132.13936,58.987351 132.85486,59.565317 133.60692,60.256285 134.05388,60.666933 134.76279,61.372021 134.74937,61.392565 134.74553,61.398425 134.56469,61.682883 134.34749,62.024695 133.27937,63.705602 132.5803,64.786414 131.94266,65.742712 131.7215,66.074401 131.53435,66.357968 131.52677,66.372878 131.5192,66.387782 131.66872,66.604107 131.85904,66.853593 132.16888,67.259753 132.49932,67.748 132.68176,68.069199 132.71756,68.132212 132.85042,68.346296 132.97703,68.544936 133.35141,69.132323 133.56158,69.55306 133.95152,70.495764 L 134.31096,71.364711 137.27603,71.349001 140.24109,71.333301 140.2645,71.411691 C 140.46583,72.085965 141.01823,74.854639 141.08952,75.546726 141.13167,75.955923 141.14953,78.00922 141.11265,78.20572 141.10102,78.26769 139.26731,78.674177 136.46041,79.236994 135.78123,79.373181 135.21509,79.493301 135.20233,79.503911 135.18958,79.514541 135.17371,79.645181 135.16707,79.794241 135.15619,80.038698 135.03547,80.710525 134.879,81.397522 134.783,81.818979 134.63679,82.304746 134.50679,82.634093 134.43946,82.804653 134.33166,83.11181 134.26722,83.31666 134.20279,83.52151 134.04256,83.942657 133.91116,84.252554 133.77976,84.562444 133.67571,84.824831 133.67993,84.835641 133.68416,84.846451 133.99725,85.149581 134.37568,85.509268 134.75411,85.868945 135.40498,86.491872 135.82206,86.893549 136.23914,87.295239 136.8912,87.918533 137.2711,88.278673 137.65099,88.6388 137.95885,88.949597 137.95523,88.969347 137.94389,89.031347 137.59064,89.680404 137.39146,90.005241 137.10627,90.470321 136.72706,90.993951 136.31329,91.494044 136.1099,91.739851 135.90782,91.992991 135.86422,92.056571 135.71373,92.276011 135.32381,92.746624 135.06089,93.026154 134.37021,93.760448 134.161,93.971468 133.92659,94.170298 L 133.6735,94.384955 133.56804,94.335965 C 133.41872,94.266585 130.20794,92.205281 128.99982,91.403184 128.76052,91.244314 128.5584,91.116794 128.55066,91.119814 128.54293,91.122844 128.40319,91.234834 128.24011,91.368694 127.77626,91.749421 127.44838,91.979791 126.95646,92.270551 125.94332,92.869424 125.25216,93.220911 124.33789,93.602231 L 123.59168,93.913458 123.62306,94.741202 C 123.69333,96.594342 123.72657,98.155592 123.71895,99.245956 123.71657,99.589043 123.71258,99.874363 123.71012,99.880003 123.69917,99.905003 122.34625,100.16867 121.61214,100.28888 121.36287,100.3297 121.07488,100.3791 120.97217,100.39867 120.86945,100.41823 120.69858,100.42961 120.59245,100.42397 120.4803,100.418 120.32355,100.43538 120.21818,100.46547 120.02911,100.51944 119.30626,100.57453 118.50613,100.59595 117.95429,100.61071 116.87912,100.60594 116.83942,100.58856 116.80983,100.5756 116.60838,99.702763 116.15947,97.642559 115.81102,96.043369 115.50571,94.685725 115.494,94.683435 115.48908,94.682465 115.37965,94.662735 115.25082,94.639585 115.122,94.616425 114.92968,94.572125 114.82345,94.541135 114.71723,94.510155 114.50429,94.466835 114.35026,94.444875 113.96445,94.389875 113.44833,94.272855 112.84824,94.104348 112.21134,93.925488 111.96636,93.835958 111.10328,93.466621 110.72159,93.303281 110.39677,93.174531 110.38146,93.180511 110.36615,93.186501 110.15758,93.402421 109.91797,93.660328 108.56032,95.121632 106.34718,97.401699 106.24923,97.439979 106.21258,97.454309 105.31111,96.926539 104.79116,96.586362 103.71376,95.881439 102.69041,95.072032 101.77022,94.196975 101.30613,93.755658 100.81047,93.249881 100.81024,93.217421 100.80964,93.135401 102.62673,90.226641 103.57161,88.79707 103.79744,88.45541 103.99517,88.150953 104.01104,88.120483 104.03744,88.069803 104.00565,88.017003 103.63768,87.500176 103.41646,87.189479 103.17101,86.827449 103.09224,86.695682 103.01346,86.563912 102.86579,86.327612 102.76408,86.170585 102.35854,85.544428 102.00957,84.836851 101.63667,83.884677 L 101.40276,83.28741 100.35925,83.30413 C 99.785333,83.31332 98.787389,83.33018 98.141604,83.34159 97.49582,83.35299 96.611629,83.35939 96.176727,83.35579 L 95.386004,83.34925 95.329832,83.1513 C 95.217575,82.755723 94.791251,80.669005 94.802849,80.571875 94.80713,80.536055 94.788106,80.322728 94.760586,80.097818 94.664478,79.312404 94.577177,77.697377 94.58054,76.767237 L 94.581836,76.40768 95.822701,76.147023 C 96.505176,76.003663 97.819733,75.725523 98.74393,75.528936 99.668133,75.332356 100.44643,75.169736 100.4735,75.167566 100.51048,75.164606 100.53915,75.058529 100.589,74.740119 100.62548,74.507186 100.65528,74.260096 100.65524,74.191046 100.65501,73.879906 101.17344,71.897518 101.39351,71.368041 101.47418,71.173951 101.62239,70.806114 101.7229,70.550614 L 101.90562,70.086077 100.72043,68.951233 C 98.835782,67.146609 97.595859,65.921724 97.604043,65.872629 97.606284,65.859175 97.726576,65.642562 97.871354,65.391268 98.456155,64.376221 99.179712,63.319259 99.821788,62.542074 100.1023,62.202521 100.76148,61.476188 100.97915,61.266798 101.07242,61.177072 101.30559,60.931844 101.4973,60.721836 101.68902,60.511834 101.84767,60.341272 101.84985,60.342803 101.99494,60.444609 103.5559,61.470845 104.40906,62.025347 105.04884,62.441158 105.84374,62.962288 106.17549,63.183421 106.50725,63.404556 106.8251,63.605281 106.88183,63.62949 L 106.98498,63.673497 107.43529,63.32536 C 108.75233,62.307153 109.40775,61.926738 110.89732,61.315958 L 111.80019,60.945747 111.77573,60.391672 C 111.71112,58.927615 111.67583,54.867414 111.72762,54.856456 111.73552,54.854785 112.07201,54.784372 112.47538,54.699977 Z M 113.96785,69.78327 C 112.85316,70.341887 111.82806,71.188601 111.00144,72.233465 109.72186,73.850876 109.10569,75.713273 109.20517,77.662617 109.26923,78.917644 109.48218,79.903578 109.90202,80.888875 110.38454,82.021316 111.03933,82.911173 112.02779,83.777777 113.59092,85.148221 115.04679,85.794795 116.92752,85.953825 117.98546,86.043295 118.9454,85.965985 119.95889,85.709718 120.40278,85.597478 121.47411,85.169221 121.85592,84.951401 123.54262,83.989137 124.8426,82.550773 125.61841,80.788425 126.20643,79.452651 126.3938,78.15754 126.22707,76.58147 126.11609,75.532536 125.96398,74.922549 125.59157,74.033126 125.31465,73.371739 125.12346,73.028619 124.73183,72.490192 123.7824,71.184871 122.24923,70.004917 120.79805,69.46269 119.45859,68.962203 118.22226,68.836243 116.59995,69.034993 115.56248,69.162093 114.74185,69.39539 113.96785,69.78327 Z M 114.98998,72.667012 C 114.65032,72.860122 114.231,73.165099 113.96031,73.415929 113.67122,73.683806 113.3694,74.023026 113.38412,74.063536 113.39087,74.082106 113.34233,74.164376 113.27624,74.246346 112.83592,74.792509 112.44621,75.649616 112.29327,76.4082 112.16816,77.028717 112.15521,77.85098 112.26143,78.428397 112.51868,79.826781 113.19671,80.929605 114.32334,81.782129 115.50581,82.676893 116.7465,83.042623 118.15016,82.910203 118.90946,82.838563 119.04928,82.806173 119.70413,82.550243 120.21809,82.349386 120.33193,82.295546 120.55102,82.149766 120.93244,81.895959 121.27784,81.600309 121.60286,81.249412 122.63318,80.137078 123.17471,78.776877 123.16464,77.326577 123.16,76.65743 123.04204,76.132273 122.72782,75.381676 122.39409,74.584516 122.02206,74.053646 121.38426,73.464469 120.30514,72.467635 119.02264,71.959195 117.67329,71.993275 117.32013,72.002195 116.48556,72.107005 116.21009,72.177025 115.88094,72.260695 115.2806,72.501792 114.98998,72.667012 Z M 100.52502,95.388079 C 100.94576,95.259569 101.53834,95.100592 101.56047,95.110282 101.60395,95.129332 102.46262,96.752662 103.22783,98.262452 103.49553,98.790639 103.71744,99.223526 103.72094,99.224416 103.75394,99.232766 104.29642,99.186336 104.62349,99.147146 105.45472,99.047566 106.26216,99.061966 107.22141,99.193476 107.59811,99.245116 107.91879,99.275396 107.93403,99.260746 107.94927,99.246116 108.15538,98.869859 108.39205,98.424629 108.62873,97.979412 109.11679,97.090879 109.47662,96.450152 109.83645,95.809419 110.12873,95.267629 110.12613,95.246189 110.11838,95.182492 111.01536,95.442339 111.80446,95.732389 112.80601,96.100519 114.2014,96.792472 114.91105,97.272879 115.06463,97.376859 115.07025,97.384429 115.05346,97.464249 115.01793,97.632989 114.61636,98.887559 114.14458,100.30371 L 113.65929,101.76038 113.82201,101.86093 C 114.02638,101.98721 114.2882,102.19275 114.71571,102.56249 115.22301,103.00123 115.67394,103.48711 116.04599,103.99585 116.14058,104.12519 116.28407,104.29617 116.36486,104.37583 116.44565,104.45548 116.56571,104.61131 116.63165,104.72212 L 116.75155,104.92359 118.93292,104.29849 C 120.13267,103.95468 121.1256,103.67889 121.13944,103.6856 121.1741,103.70244 121.50536,104.2603 121.71305,104.65158 122.18305,105.53706 122.74927,106.94355 122.94629,107.71497 123.04031,108.08308 123.1452,108.57519 123.13474,108.59907 123.1103,108.65487 121.06149,109.72784 119.19306,110.66335 L 119.02201,110.74899 119.06457,110.95444 C 119.08799,111.06744 119.10559,111.2445 119.10369,111.34791 119.1018,111.45132 119.11683,111.72098 119.13709,111.94715 119.21707,112.83948 119.16815,113.68316 118.98035,114.65064 L 118.91103,115.00772 120.1795,115.70648 C 120.87716,116.0908 121.77287,116.59327 122.16996,116.82309 122.56706,117.05291 122.91338,117.24751 122.93956,117.25556 122.97732,117.26714 122.9462,117.40481 122.78911,117.92105 122.68018,118.27903 122.55708,118.66919 122.51555,118.7881 122.33968,119.29168 121.73739,120.68783 121.57453,120.96945 121.47743,121.13737 121.36695,121.33862 121.32901,121.41667 121.29107,121.49475 121.17678,121.69796 121.07502,121.86827 L 120.89,122.17793 120.6164,122.08792 C 120.46592,122.03842 119.45884,121.71096 118.37845,121.36024 L 116.41411,120.72256 116.22201,120.97228 C 116.11636,121.10963 115.92064,121.33865 115.78708,121.48123 114.70187,122.6397 114.56161,122.78028 114.20968,123.06229 114.13801,123.11972 114.07092,123.18091 114.06059,123.19825 114.05026,123.21561 113.99663,123.25749 113.9414,123.29132 113.88618,123.32516 113.75872,123.41102 113.65818,123.48211 113.55762,123.55319 113.41848,123.63381 113.34897,123.66124 L 113.22258,123.71111 113.25412,123.83101 C 113.27146,123.89695 113.39419,124.28651 113.52684,124.69667 113.8754,125.77445 114.4394,127.80129 114.47923,128.11922 114.49218,128.22267 114.47044,128.23976 114.01176,128.48663 113.33947,128.84847 112.51622,129.22304 111.93946,129.42948 110.99261,129.76841 109.64368,130.1624 109.55707,130.12533 109.52447,130.11138 109.13189,129.39834 108.67434,128.52207 108.38553,127.96895 107.41132,126.04602 107.38165,125.97052 107.37427,125.95173 107.33555,125.94965 107.29419,125.96582 107.22045,125.99465 106.6231,126.06472 106.24556,126.08883 105.82373,126.11576 104.51676,126.02303 103.56726,125.89881 L 103.26565,125.85935 103.00097,126.36041 C 102.48478,127.33758 101.80613,128.54706 101.27627,129.4341 101.13927,129.66345 101.02421,129.87061 101.0206,129.89445 101.01316,129.94357 100.28445,129.72569 99.416581,129.41482 98.800528,129.19415 97.686554,128.71126 97.193077,128.45097 96.646949,128.16291 96.103438,127.8413 96.085669,127.7957 96.076879,127.77314 96.385163,126.78436 96.770743,125.59842 97.156323,124.41247 97.471769,123.42486 97.471735,123.40374 97.471701,123.38262 97.205159,123.13442 96.879424,122.8522 96.553687,122.56997 96.165692,122.20939 96.017219,122.05091 95.591234,121.59619 94.950962,120.83203 94.908402,120.72754 94.887079,120.67519 94.809264,120.55793 94.735483,120.46699 94.61298,120.31598 94.594053,120.30349 94.517452,120.32303 94.471322,120.33481 93.464857,120.62308 92.280864,120.96364 L 90.128163,121.58285 90.014878,121.39393 C 89.905778,121.21199 89.67307,120.74779 89.256547,119.88128 89.025823,119.40129 88.705257,118.53249 88.460449,117.72367 88.3029,117.20316 88.128681,116.53174 88.142244,116.49732 88.147081,116.48505 92.163591,114.46029 92.277442,114.41273 92.320894,114.39458 92.291846,114.02845 92.235519,113.88432 92.20833,113.81475 92.201305,113.74941 92.217805,113.7196 92.232849,113.69241 92.234142,113.64199 92.22068,113.60754 92.122659,113.35673 92.176742,111.45857 92.305493,110.63091 92.324404,110.5093 92.332535,110.39101 92.323554,110.36804 92.314571,110.34505 92.081765,110.20746 91.806204,110.0623 91.079422,109.67942 88.623077,108.3314 88.266231,108.11961 88.205402,108.0835 88.518193,107.08233 88.865067,106.2029 88.962547,105.95575 89.142683,105.49688 89.265358,105.18318 89.580324,104.37779 89.817825,103.91438 90.190264,103.37854 L 90.344231,103.15703 90.917146,103.32787 C 91.931308,103.63028 92.992618,103.97489 94.205041,104.39544 94.501966,104.49844 94.762787,104.58816 94.784639,104.59482 94.810191,104.60262 94.880718,104.52601 94.982325,104.3801 95.495729,103.64281 96.344787,102.75478 96.999195,102.27066 97.433402,101.94943 97.839246,101.61687 97.838686,101.58273 97.83841,101.56563 97.551583,100.5576 97.201305,99.342686 L 96.564425,97.133739 96.713294,97.039159 C 96.936666,96.897249 97.45944,96.617352 97.857508,96.426522 98.275572,96.226109 100.07592,95.525239 100.52502,95.388079 Z M 102.53916,106.8249 C 100.79964,107.71524 99.56352,109.34134 99.126947,111.31365 98.967412,112.03438 98.932813,112.90885 99.036249,113.60601 99.145391,114.34159 99.49158,115.35344 99.847932,115.97843 100.5675,117.24044 101.59269,118.15151 102.96524,118.74872 104.38069,119.36461 105.71731,119.49704 107.05442,119.15389 107.4339,119.05649 108.9411,118.43754 109.19615,118.27436 110.30717,117.5635 111.0254,116.71672 111.57146,115.4739 112.00849,114.47923 112.21269,113.55194 112.20399,112.60153 112.20077,112.25085 112.12188,111.6375 112.02636,111.22044 111.93078,110.80321 111.58295,109.8901 111.3816,109.52792 110.66044,108.23063 109.65373,107.29967 108.29245,106.67117 106.85278,106.00648 105.35606,105.88853 103.80771,106.31775 103.58058,106.38071 102.78762,106.69772 102.53916,106.8249 Z M 103.2414,109.1277 C 102.6489,109.52299 102.21214,110.00939 101.84934,110.67798 101.46082,111.39396 101.28065,112.06868 101.29929,112.73778 101.31469,113.29038 101.5105,114.03972 101.78934,114.61318 102.261,115.58319 102.84607,116.15254 103.79843,116.56832 104.60775,116.92166 105.43661,117.0241 106.31767,116.87966 106.66454,116.8228 107.49859,116.49702 107.8095,116.29697 108.61771,115.77692 109.29713,114.92861 109.55052,114.12316 109.80325,113.31982 109.83969,112.54827 109.66146,111.7736 109.57354,111.39144 109.30436,110.74515 109.09786,110.42044 108.66479,109.73946 108.09359,109.24151 107.35192,108.89841 106.40286,108.45938 105.54464,108.35185 104.60069,108.5537 104.24709,108.62932 103.5424,108.92689 103.2414,109.1277 Z"
         id="path6024"
         sodipodi:nodetypes="sssssssscssssssssssssscccsssssssssssssssssssscsssssscsscssssssssssssssssssssssssscssscsssscsssscsscsssssscssscsscssssssssssssssssssssscssssssssssssssssssssssssscscssssscsssssscsscscsssssssscsscssssssscssssssssssscsssssssssssssscssssssssssssssscssssssscssscsssssssssssscsssssssssssss" />
      <path
         style="fill:#000000;fill-opacity:1;stroke-width:0.0289777"
         d="M 105.62728,128.26254 C 106.03384,128.09447 106.60855,127.87967 106.6315,127.8872 106.6766,127.90202 107.68625,129.436 108.59204,130.86589 108.90892,131.36612 109.17112,131.77586 109.17469,131.77641 109.20833,131.78158 109.74391,131.68359 110.06575,131.61337 110.88368,131.43493 111.68881,131.37222 112.65623,131.4116 113.03614,131.42705 113.35825,131.4266 113.37202,131.41056 113.3858,131.39454 113.55506,131.00033 113.74817,130.53455 113.94128,130.06878 114.34233,129.13773 114.63938,128.46559 114.93643,127.79345 115.17568,127.22624 115.17104,127.20514 115.15725,127.14247 116.07493,127.31555 116.88811,127.52898 117.92022,127.79986 119.37527,128.3555 120.12752,128.766 120.29032,128.85485 120.29664,128.86185 120.28754,128.94291 120.26827,129.11427 119.98825,130.40143 119.65375,131.85614 L 119.30967,133.35247 119.48125,133.43704 C 119.69673,133.54324 119.97697,133.72286 120.43781,134.05012 120.98466,134.43845 121.4799,134.87908 121.8988,135.35 122.0053,135.46972 122.16445,135.62623 122.25247,135.69782 122.34049,135.76939 122.47487,135.91306 122.55108,136.01707 L 122.68966,136.20618 124.80143,135.37578 C 125.9629,134.91906 126.92498,134.54978 126.9394,134.55514 126.97551,134.5686 127.35849,135.0923 127.60257,135.46198 128.15492,136.29857 128.85276,137.64461 129.12249,138.39371 129.25121,138.75117 129.40258,139.23103 129.39444,139.2558 129.37544,139.31367 127.43836,140.57725 125.66773,141.68678 L 125.50563,141.78835 125.5676,141.9888 C 125.6017,142.09905 125.63611,142.27362 125.64409,142.37674 125.65207,142.47986 125.69277,142.74685 125.73451,142.97006 125.89928,143.85069 125.93109,144.69518 125.83646,145.67617 L 125.80153,146.03823 127.13089,146.61277 C 127.86204,146.92876 128.80161,147.34347 129.21881,147.53435 129.63603,147.72523 129.99934,147.88589 130.02617,147.89141 130.06486,147.89933 130.04702,148.03935 129.93991,148.56822 129.86563,148.93496 129.78033,149.33509 129.75033,149.45742 129.62332,149.97548 129.157,151.42273 129.02175,151.71861 128.94112,151.89503 128.85035,152.1059 128.82003,152.18721 128.78971,152.26856 128.69533,152.48175 128.61029,152.66099 L 128.45566,152.98689 128.17472,152.9234 C 128.0202,152.88848 126.98647,152.65861 125.87755,152.41259 L 123.86132,151.96526 123.69393,152.23217 C 123.60187,152.37897 123.42889,152.62562 123.30955,152.7803 122.33983,154.03703 122.21363,154.19036 121.89021,154.50466 121.82435,154.56867 121.7634,154.63598 121.75477,154.65423 121.74615,154.67249 121.69676,154.7193 121.64501,154.75825 121.59327,154.7972 121.47458,154.89483 121.38129,154.97519 121.28797,155.05554 121.15716,155.14907 121.09058,155.18301 L 120.96953,155.24471 121.01236,155.36105 C 121.03592,155.42504 121.19526,155.80111 121.36644,156.19674 121.81625,157.23634 122.57108,159.20012 122.64107,159.51279 122.66383,159.61454 122.64382,159.63362 122.21079,159.92313 121.5761,160.34747 120.79235,160.79889 120.23792,161.05942 119.32773,161.48716 118.02255,162.00807 117.9328,161.97943 117.89901,161.96865 117.44019,161.29633 116.90111,160.46772 116.56084,159.94468 115.40758,158.12348 115.37084,158.05116 115.36171,158.03316 115.32296,158.03478 115.28334,158.05483 115.21268,158.09056 114.62474,158.21731 114.25123,158.27734 113.83389,158.3444 112.52404,158.3768 111.56702,158.34375 L 111.26302,158.33325 111.04736,158.85728 C 110.62677,159.87925 110.06662,161.14797 109.62382,162.08152 109.50933,162.3229 109.41457,162.54009 109.41325,162.56417 109.41053,162.61377 108.66435,162.46642 107.77078,162.23978 107.13648,162.0789 105.98152,161.70451 105.46545,161.4925 104.89433,161.25787 104.32261,160.98959 104.30057,160.94589 104.28967,160.92427 104.50219,159.91059 104.77285,158.69327 105.0435,157.47593 105.26327,156.46273 105.26123,156.44171 105.25917,156.42069 104.97017,156.19906 104.61899,155.94921 104.26781,155.69935 103.84717,155.37743 103.68426,155.23385 103.21683,154.82185 102.50655,154.12227 102.45422,154.02232 102.428,153.97224 102.33936,153.86294 102.25723,153.77946 102.12087,153.64083 102.10084,153.6302 102.02645,153.65696 101.98166,153.67309 101.0073,154.05608 99.861207,154.50806 L 97.777405,155.32986 97.646615,155.15261 C 97.520652,154.98192 97.244709,154.54204 96.747406,153.71923 96.471928,153.26344 96.069928,152.4292 95.749057,151.64743 95.542558,151.14433 95.305065,150.4926 95.315289,150.45704 95.318926,150.44436 99.123903,148.04558 99.232695,147.98737 99.274225,147.96516 99.210371,147.60347 99.140545,147.46537 99.106841,147.39872 99.093618,147.33434 99.107198,147.3031 99.119575,147.2746 99.116048,147.22428 99.099362,147.19127 98.977857,146.95096 98.850565,145.0563 98.899751,144.22013 98.90698,144.09727 98.903786,143.97875 98.892655,143.95674 98.881512,143.93471 98.636645,143.81996 98.348491,143.70176 97.588483,143.38998 95.014721,142.2825 94.63929,142.10572 94.575292,142.07558 94.791122,141.04914 95.052503,140.14062 95.125954,139.88529 95.261476,139.41133 95.353663,139.08736 95.590344,138.25559 95.782541,137.77163 96.102151,137.20269 L 96.234272,136.9675 96.82088,137.0829 C 97.859268,137.28715 98.948619,137.52892 100.19564,137.83186 100.50104,137.90606 100.76923,137.97048 100.79162,137.97502 100.81779,137.98035 100.88069,137.89736 100.96792,137.74242 101.40862,136.9595 102.16907,135.99451 102.7743,135.45015 103.17586,135.08896 103.54813,134.71919 103.54431,134.68526 103.5424,134.66826 103.16069,133.6922 102.69609,132.51626 L 101.85134,130.37816 101.9905,130.2698 C 102.19931,130.10723 102.69299,129.77872 103.07103,129.55078 103.46806,129.31139 105.19332,128.44193 105.62728,128.26254 Z M 108.72355,139.45498 C 107.07692,140.50724 106.00161,142.24388 105.75523,144.24885 105.66519,144.98151 105.71419,145.85529 105.88369,146.5394 106.06252,147.26121 106.50368,148.23541 106.91804,148.82354 107.75475,150.01113 108.8622,150.82022 110.28547,151.28373 111.75323,151.76175 113.09639,151.76603 114.39466,151.29686 114.76311,151.16369 116.20437,150.40375 116.44269,150.21698 117.48081,149.40334 118.11496,148.49189 118.53993,147.20264 118.88006,146.17081 118.99484,145.22826 118.89549,144.28302 118.85882,143.93425 118.72177,143.33122 118.58689,142.92518 118.45193,142.51897 118.01856,141.64322 117.78357,141.30191 116.94191,140.07935 115.85096,139.2487 114.43592,138.75296 112.93939,138.22868 111.43825,138.25409 109.93792,138.8291 109.71783,138.91344 108.95874,139.30467 108.72355,139.45498 Z M 109.64232,141.68026 C 109.09024,142.13029 108.70189,142.65614 108.40454,143.3563 108.08612,144.10609 107.97115,144.79492 108.05355,145.45919 108.12161,146.0078 108.38803,146.73503 108.72032,147.27927 109.28239,148.19985 109.91912,148.71077 110.9068,149.03378 111.74615,149.30828 112.581,149.33116 113.44426,149.10331 113.78412,149.01361 114.58328,148.60973 114.87368,148.38093 115.62858,147.78613 116.22395,146.87686 116.39933,146.0509 116.57425,145.22711 116.5369,144.45561 116.28556,143.70148 116.16158,143.32945 115.83196,142.7118 115.59541,142.40827 115.09934,141.77172 114.48323,141.33055 113.71221,141.05979 112.72558,140.71332 111.86102,140.68817 110.94064,140.97918 110.59587,141.08819 109.92279,141.45165 109.64232,141.68026 Z"
         id="path6024-3"
         sodipodi:nodetypes="sssssssssssscscssssscsssssscsscscsssssssscsscssssssscssssssssssscsssssssssssssscssssssssssssssscssssssscssscsssssssssssscsssssssssssss" />
    </g>
  </g>
</svg>
